<?xml version="1.0" encoding="utf-8"?>
<!-- Generator: Adobe Illustrator 17.0.0, SVG Export Plug-In . SVG Version: 6.00 Build 0)  -->
<!-- Created by Hu Hao on 2017/02/26 -->
<!DOCTYPE svg PUBLIC "-//W3C//DTD SVG 1.1//EN" "http://www.w3.org/Graphics/SVG/1.1/DTD/svg11.dtd">
<svg version="1.1" id="layer" xmlns="http://www.w3.org/2000/svg"  x="0px" y="0px"
	 width="454px" height="340px" viewBox="0 0 454 340" enable-background="new 0 0 454 340" xml:space="preserve">
<g id="layer1">
	<path fill="#995A8C" d="M204.7,331.3c-1.2-1.1-0.8-2.3,0.8-2.3c0.8,0,1.5,0.7,1.5,1.5C207,332.1,205.8,332.5,204.7,331.3z"/>
	<path fill="#995A8C" d="M204.4,242.4c0.3-0.9,0.6-1.9,0.6-2.2c0-0.9,2,2.1,2,3.1c0,0.4-0.7,0.7-1.6,0.7
		C204.3,244,204,243.5,204.4,242.4z"/>
	<path fill="#995A8C" d="M78,193.5c0-0.9,0.9-1.5,2.5-1.5s2.5,0.6,2.5,1.5c0,0.9-0.9,1.5-2.5,1.5S78,194.4,78,193.5z"/>
	<path fill="#995A8C" d="M86,193.5c0-1.2,1.1-1.5,5-1.4c3.1,0.1,5,0.7,5,1.4s-1.9,1.3-5,1.4C87.1,195,86,194.7,86,193.5z"/>
	<path fill="#995A8C" d="M98,193.5c0-1.1,1.1-1.5,4-1.5s4,0.4,4,1.5c0,1.1-1.1,1.5-4,1.5S98,194.6,98,193.5z"/>
	<path fill="#995A8C" d="M151,193.5c0-1.2,1.3-1.5,5.5-1.5s5.5,0.3,5.5,1.5s-1.3,1.5-5.5,1.5S151,194.7,151,193.5z"/>
	<path fill="#995A8C" d="M247.2,98.8c0.6-1.8,2.8-2.1,2.8-0.4c0,0.9-0.7,1.6-1.6,1.6C247.5,100,247,99.5,247.2,98.8z"/>
	<path fill="#995A8C" d="M247,7.6c0-0.9,0.7-1.6,1.6-1.6c1.7,0,1.4,2.2-0.4,2.8C247.5,9,247,8.5,247,7.6z"/>
</g>
<g id="layer2">
	<path fill="#BA3A3E" d="M194,327.5c0-0.8,0.5-1.5,1-1.5c0.6,0,1,0.7,1,1.5c0,0.8-0.4,1.5-1,1.5C194.5,329,194,328.3,194,327.5z"/>
	<path fill="#BA3A3E" d="M168,321.5c0-0.8,0.5-1.5,1-1.5c0.6,0,1,0.7,1,1.5c0,0.8-0.4,1.5-1,1.5C168.5,323,168,322.3,168,321.5z"/>
	<path fill="#BA3A3E" d="M266,280.5c0-0.8,0.5-1.5,1-1.5c0.6,0,1,0.7,1,1.5c0,0.8-0.4,1.5-1,1.5C266.5,282,266,281.3,266,280.5z"/>
	<path fill="#BA3A3E" d="M106,279c0-0.5,0.7-1,1.5-1c0.8,0,1.5,0.5,1.5,1c0,0.6-0.7,1-1.5,1C106.7,280,106,279.6,106,279z"/>
	<path fill="#BA3A3E" d="M311,264c0-0.5,0.7-1,1.5-1c0.8,0,1.5,0.5,1.5,1c0,0.6-0.7,1-1.5,1C311.7,265,311,264.6,311,264z"/>
	<path fill="#BA3A3E" d="M330.5,247.9c-0.4-0.6-0.5-1.3-0.2-1.6c0.7-0.7,2.7,0.6,2.7,1.8S331.3,249.3,330.5,247.9z"/>
	<path fill="#BA3A3E" d="M171,227c0-0.5,0.7-1,1.5-1s1.5,0.5,1.5,1c0,0.6-0.7,1-1.5,1S171,227.6,171,227z"/>
	<path fill="#BA3A3E" d="M84,195.5c0-0.8,0.5-1.5,1-1.5c0.6,0,1,0.7,1,1.5s-0.4,1.5-1,1.5C84.5,197,84,196.3,84,195.5z"/>
	<path fill="#BA3A3E" d="M295,151.5c0-0.8,0.7-1.5,1.5-1.5c0.8,0,1.5,0.7,1.5,1.5s-0.7,1.5-1.5,1.5C295.7,153,295,152.3,295,151.5z"
		/>
	<path fill="#BA3A3E" d="M226.3,115.5c0-1.6,0.4-2.2,1.3-1.8c0.8,0.3,1.4,1.1,1.4,1.8c0,0.7-0.6,1.5-1.4,1.8
		C226.7,117.7,226.3,117.1,226.3,115.5z"/>
	<path fill="#BA3A3E" d="M242,101.1c0-0.5,0.7-1.2,1.6-1.5c2.2-0.9,2.4-0.8,2.4,0.9c0,0.8-0.9,1.5-2,1.5
		C242.9,102,242,101.6,242,101.1z"/>
	<path fill="#BA3A3E" d="M211,53.7c0-0.8,0.7-2.1,1.6-2.8c1.4-1.1,1.5-1,1.2,1.1C213.5,54.6,211,56.1,211,53.7z"/>
	<path fill="#BA3A3E" d="M238.7,22.3c-0.4-0.3-0.7-1.5-0.7-2.6c0-1.6,0.3-1.7,1.5-0.7c0.8,0.7,1.5,1.9,1.5,2.6
		C241,23.1,239.8,23.5,238.7,22.3z"/>
</g>
<g id="layer3">
	<path fill="#9E3C5C" d="M160,322.5c0-0.8,0.5-1.5,1-1.5c0.6,0,1,0.7,1,1.5c0,0.8-0.4,1.5-1,1.5C160.5,324,160,323.3,160,322.5z"/>
	<path fill="#9E3C5C" d="M125.3,302.5c-1.3-1.5-1.7-3.5-0.7-3.5s3.4,2.8,3.4,3.9C128,304.4,126.8,304.2,125.3,302.5z"/>
	<path fill="#9E3C5C" d="M104,279.4c0-1.7,2.2-1.4,2.8,0.4c0.2,0.7-0.3,1.2-1.2,1.2C104.7,281,104,280.3,104,279.4z"/>
	<path fill="#9E3C5C" d="M297,274.5c0-0.8,0.5-1.5,1-1.5c0.6,0,1,0.7,1,1.5c0,0.8-0.4,1.5-1,1.5C297.5,276,297,275.3,297,274.5z"/>
	<path fill="#9E3C5C" d="M302,272.5c0-0.8,0.5-1.5,1-1.5c0.6,0,1,0.7,1,1.5c0,0.8-0.4,1.5-1,1.5C302.5,274,302,273.3,302,272.5z"/>
	<path fill="#9E3C5C" d="M315,264.5c0-0.8,0.5-1.5,1-1.5c0.6,0,1,0.7,1,1.5c0,0.8-0.4,1.5-1,1.5C315.5,266,315,265.3,315,264.5z"/>
	<path fill="#9E3C5C" d="M325,256.5c0-0.8,0.5-1.5,1-1.5c0.6,0,1,0.7,1,1.5c0,0.8-0.4,1.5-1,1.5C325.5,258,325,257.3,325,256.5z"/>
	<path fill="#9E3C5C" d="M345,238.1c0-0.5,0.7-1.4,1.5-2.1c1.6-1.4,1.8-1,0.9,1.4C346.8,239.1,345,239.6,345,238.1z"/>
	<path fill="#9E3C5C" d="M185,236c0-0.5,0.7-1,1.5-1s1.5,0.5,1.5,1c0,0.6-0.7,1-1.5,1S185,236.6,185,236z"/>
	<path fill="#9E3C5C" d="M181,233.5c0-0.8,0.5-1.5,1-1.5c0.6,0,1,0.7,1,1.5s-0.4,1.5-1,1.5C181.5,235,181,234.3,181,233.5z"/>
	<path fill="#9E3C5C" d="M76,197c0-0.5,0.7-1,1.5-1c0.8,0,1.5,0.5,1.5,1c0,0.6-0.7,1-1.5,1C76.7,198,76,197.6,76,197z"/>
	<path fill="#9E3C5C" d="M369,193c0-0.5,0.7-1,1.5-1c0.8,0,1.5,0.5,1.5,1c0,0.6-0.7,1-1.5,1C369.7,194,369,193.6,369,193z"/>
	<path fill="#9E3C5C" d="M283.2,174.8c0.6-1.8,2.8-2.1,2.8-0.4c0,0.9-0.7,1.6-1.6,1.6C283.5,176,283,175.5,283.2,174.8z"/>
</g>
<g id="layer4">
	<path fill="#554978" d="M206.1,330.8c0.1-2.5,1.4-4.3,3.2-4.4c2.1-0.2,2.1,0.5,0.1,3.4C207.7,332.2,206,332.7,206.1,330.8z"/>
	<path fill="#554978" d="M214.2,321.3c0.2-1,1-1.8,1.8-1.8c2.2,0,1.8,2.9-0.3,3.3C214.3,323.1,213.9,322.7,214.2,321.3z"/>
	<path fill="#554978" d="M223.2,311.9c0.2-0.7,1-1.5,1.7-1.7c0.8-0.3,1.2,0.1,0.9,0.9c-0.2,0.7-1,1.5-1.7,1.7
		C223.3,313.1,222.9,312.7,223.2,311.9z"/>
	<path fill="#554978" d="M215,229.5c0-1.6,2.7-3.2,3.7-2.1c0.7,0.7-1.6,3.6-2.8,3.6C215.4,231,215,230.3,215,229.5z"/>
	<path fill="#554978" d="M219,225c0-0.5,0.7-1,1.5-1s1.5,0.5,1.5,1c0,0.6-0.7,1-1.5,1S219,225.6,219,225z"/>
	<path fill="#554978" d="M227,216c0-0.5,0.7-1,1.5-1s1.5-0.6,1.5-1.4s0.7-1.6,1.5-2c2-0.7,1.9,0.7-0.4,3.2
		C229.2,217.1,227,217.7,227,216z"/>
	<path fill="#554978" d="M235.5,208.1c-0.8-1.5,0.3-3.1,2.1-3.1c0.9,0,1.4,0.7,1.2,1.7C238.4,208.7,236.4,209.5,235.5,208.1z"/>
	<path fill="#554978" d="M75,187c0-0.5,0.7-1,1.5-1c0.8,0,1.5,0.5,1.5,1c0,0.6-0.7,1-1.5,1C75.7,188,75,187.6,75,187z"/>
	<path fill="#554978" d="M161,183c0-0.5,0.7-1,1.5-1s1.5,0.5,1.5,1c0,0.6-0.7,1-1.5,1S161,183.6,161,183z"/>
	<path fill="#554978" d="M192,146.5c0-0.8,0.5-1.5,1-1.5c0.6,0,1,0.7,1,1.5s-0.4,1.5-1,1.5C192.5,148,192,147.3,192,146.5z"/>
	<path fill="#554978" d="M204,144.4c0-0.9,0.5-1.4,1.2-1.2c1.8,0.6,2.1,2.8,0.4,2.8C204.7,146,204,145.3,204,144.4z"/>
	<path fill="#554978" d="M377,132.5c0-0.8,0.7-1.5,1.5-1.5c0.8,0,1.5,0.7,1.5,1.5s-0.7,1.5-1.5,1.5C377.7,134,377,133.3,377,132.5z"
		/>
	<path fill="#554978" d="M373,111c0-0.5,0.7-1,1.5-1c0.8,0,1.5,0.5,1.5,1c0,0.6-0.7,1-1.5,1C373.7,112,373,111.6,373,111z"/>
	<path fill="#554978" d="M254,98.5c0-0.9,0.9-1.5,2.5-1.5c1.6,0,2.5,0.6,2.5,1.5s-0.9,1.5-2.5,1.5C254.9,100,254,99.4,254,98.5z"/>
	<path fill="#554978" d="M361,78c0-0.5,0.7-1,1.5-1c0.8,0,1.5,0.5,1.5,1c0,0.6-0.7,1-1.5,1C361.7,79,361,78.6,361,78z"/>
	<path fill="#554978" d="M138,73c0-0.5,0.7-1,1.5-1s1.5,0.5,1.5,1c0,0.6-0.7,1-1.5,1S138,73.6,138,73z"/>
	<path fill="#554978" d="M189,53.5c0-0.8,0.5-1.5,1-1.5c0.6,0,1,0.7,1,1.5s-0.4,1.5-1,1.5C189.5,55,189,54.3,189,53.5z"/>
	<path fill="#554978" d="M203,53.6c0-0.9,0.7-1.6,1.6-1.6c0.9,0,1.4,0.5,1.2,1.2C205.2,55,203,55.3,203,53.6z"/>
	<path fill="#554978" d="M329.7,38.3c-1.2-1.1-0.8-2.3,0.8-2.3c0.8,0,1.5,0.7,1.5,1.5C332,39.1,330.8,39.5,329.7,38.3z"/>
	<path fill="#554978" d="M324,33c0-0.5,0.7-1,1.5-1c0.8,0,1.5,0.5,1.5,1c0,0.6-0.7,1-1.5,1C324.7,34,324,33.6,324,33z"/>
	<path fill="#554978" d="M298,17c0-0.5,0.7-1,1.5-1c0.8,0,1.5,0.5,1.5,1c0,0.6-0.7,1-1.5,1C298.7,18,298,17.6,298,17z"/>
	<path fill="#554978" d="M291,13.5c0-0.8,0.5-1.5,1-1.5c0.6,0,1,0.7,1,1.5s-0.4,1.5-1,1.5C291.5,15,291,14.3,291,13.5z"/>
	<path fill="#554978" d="M275.5,9.9c-1-1.6,0.1-2.2,2.6-1.4c1.7,0.6,1.9,0.9,0.8,1.6C277,11.3,276.3,11.2,275.5,9.9z"/>
</g>
<g id="layer5">
	<path fill="#A15862" d="M198,332.5c0-1,1.1-1.5,3.5-1.5c2.4,0,3.5,0.5,3.5,1.5s-1.1,1.5-3.5,1.5C199.1,334,198,333.5,198,332.5z"/>
	<path fill="#A15862" d="M184,330.5c0-0.8,0.5-1.5,1-1.5c0.6,0,1,0.7,1,1.5c0,0.8-0.4,1.5-1,1.5C184.5,332,184,331.3,184,330.5z"/>
	<path fill="#A15862" d="M175,328.5c0-0.8,0.7-1.5,1.5-1.5s1.5,0.7,1.5,1.5c0,0.8-0.7,1.5-1.5,1.5S175,329.3,175,328.5z"/>
	<path fill="#A15862" d="M158,322.5c0-0.8,0.5-1.5,1-1.5c0.6,0,1,0.7,1,1.5c0,0.8-0.4,1.5-1,1.5C158.5,324,158,323.3,158,322.5z"/>
	<path fill="#A15862" d="M149,318.5c0-0.8,0.5-1.5,1-1.5c0.6,0,1,0.7,1,1.5c0,0.8-0.4,1.5-1,1.5C149.5,320,149,319.3,149,318.5z"/>
	<path fill="#A15862" d="M131.5,307.9c-0.4-0.6-0.5-1.3-0.2-1.6c0.7-0.7,2.7,0.6,2.7,1.8S132.3,309.3,131.5,307.9z"/>
	<path fill="#A15862" d="M117.5,295.9c-0.4-0.6-0.5-1.3-0.2-1.6c0.7-0.7,2.7,0.6,2.7,1.8S118.3,297.3,117.5,295.9z"/>
	<path fill="#A15862" d="M273,282.5c0-0.8,0.9-1.5,2-1.5s2,0.7,2,1.5c0,0.8-0.9,1.5-2,1.5S273,283.3,273,282.5z"/>
	<path fill="#A15862" d="M281.2,280.8c0.6-1.8,2.8-2.1,2.8-0.4c0,0.9-0.7,1.6-1.6,1.6C281.5,282,281,281.5,281.2,280.8z"/>
	<path fill="#A15862" d="M286.2,278.8c0.7-2,4.8-2.3,4.8-0.4c0,1.1-0.9,1.6-2.6,1.6C286.8,280,286,279.5,286.2,278.8z"/>
	<path fill="#A15862" d="M295,276.5c0-0.8,0.5-1.5,1-1.5c0.6,0,1,0.7,1,1.5c0,0.8-0.4,1.5-1,1.5C295.5,278,295,277.3,295,276.5z"/>
	<path fill="#A15862" d="M99.6,274.4c-0.8-2.2-0.8-2.4,0.8-2.4c1.2,0,2.6,2,2.6,3.6C103,276.8,100.1,275.8,99.6,274.4z"/>
	<path fill="#A15862" d="M96,268.4c0-0.9,0.5-1.4,1.2-1.2c1.8,0.6,2.1,2.8,0.4,2.8C96.7,270,96,269.3,96,268.4z"/>
	<path fill="#A15862" d="M308,269c0-0.5,0.7-1,1.5-1c0.8,0,1.5,0.5,1.5,1c0,0.6-0.7,1-1.5,1C308.7,270,308,269.6,308,269z"/>
	<path fill="#A15862" d="M91.6,261.4c-0.8-2.2-0.8-2.4,0.8-2.4c1.2,0,2.6,2,2.6,3.6C95,263.8,92.1,262.8,91.6,261.4z"/>
	<path fill="#A15862" d="M87.5,251.9c-0.9-2.9,0.4-3.8,2.1-1.5c1.8,2.5,1.8,3.6,0,3.6C88.8,254,87.8,253.1,87.5,251.9z"/>
	<path fill="#A15862" d="M340.2,242.8c0.6-1.8,2.8-2.1,2.8-0.4c0,0.9-0.7,1.6-1.6,1.6C340.5,244,340,243.5,340.2,242.8z"/>
	<path fill="#A15862" d="M83,239.9c0-1.8,0.2-1.9,1.5-0.9c0.8,0.7,1.5,1.6,1.5,2.1s-0.7,0.9-1.5,0.9C83.6,242,83,241.1,83,239.9z"/>
	<path fill="#A15862" d="M185.8,236.3c-2.1-1.4-3.8-3-3.8-3.5s0.4-0.8,0.8-0.6c0.4,0.2,2.9,1.2,5.5,2.3c2.6,1.1,4.7,2.6,4.7,3.3
		C193,239.7,189.8,239.1,185.8,236.3z"/>
	<path fill="#A15862" d="M346.2,235.8c0.3-0.7,1.3-1.5,2.2-1.6c1.2-0.3,1.7,0.1,1.4,1c-0.3,0.7-1.3,1.5-2.2,1.6
		C346.4,237.1,345.9,236.7,346.2,235.8z"/>
	<path fill="#A15862" d="M349.5,232.1c-0.8-1.5,0.3-3.1,2.1-3.1c0.9,0,1.4,0.7,1.2,1.7C352.4,232.7,350.4,233.5,349.5,232.1z"/>
	<path fill="#A15862" d="M79,225.4c0-3.1,2.3-2.8,2.8,0.4c0.2,1.5-0.2,2.2-1.2,2.2C79.5,228,79,227.1,79,225.4z"/>
	<path fill="#A15862" d="M354,225.6c0-0.9,0.7-1.6,1.6-1.6s1.4,0.5,1.2,1.2C356.2,227,354,227.3,354,225.6z"/>
	<path fill="#A15862" d="M170.7,224.3c-1.2-1.1-0.8-2.3,0.8-2.3c0.8,0,1.5,0.7,1.5,1.5C173,225.1,171.8,225.5,170.7,224.3z"/>
	<path fill="#A15862" d="M165.5,214.3c-0.9-2.1-2-4.5-2.5-5.4c-0.5-0.9-1.2-3.3-1.5-5.3c-0.6-2.9-0.4-3.6,0.8-3.6
		c1.1,0,1.8,1.4,2.3,4.7c0.4,2.6,1.5,6.3,2.5,8.1c2.1,3.6,2.4,5.2,0.9,5.2C167.5,218,166.4,216.3,165.5,214.3z"/>
	<path fill="#A15862" d="M364,207.6c0-0.9,0.7-1.6,1.6-1.6c1.7,0,1.4,2.2-0.4,2.8C364.5,209,364,208.5,364,207.6z"/>
	<path fill="#A15862" d="M75,197c0-0.5,0.7-1,1.5-1c0.8,0,1.5,0.5,1.5,1c0,0.6-0.7,1-1.5,1C75.7,198,75,197.6,75,197z"/>
	<path fill="#A15862" d="M160,195c0-0.5,0.7-1,1.5-1s1.5,0.5,1.5,1c0,0.6-0.7,1-1.5,1S160,195.6,160,195z"/>
	<path fill="#A15862" d="M260,191.5c0-0.8,0.7-1.5,1.5-1.5c0.8,0,2.9-0.9,4.7-2c4-2.4,4.8-2.5,4.8-0.5c0,0.8-0.6,1.5-1.3,1.5
		c-0.8,0-2.2,0.9-3.2,2C264.4,193.4,260,193.7,260,191.5z"/>
	<path fill="#A15862" d="M272,185.6c0-0.9,0.7-1.6,1.6-1.6c1.7,0,1.4,2.2-0.4,2.8C272.5,187,272,186.5,272,185.6z"/>
	<path fill="#A15862" d="M279,179c0-0.5,0.7-1,1.5-1c0.8,0,1.5,0.5,1.5,1c0,0.6-0.7,1-1.5,1C279.7,180,279,179.6,279,179z"/>
	<path fill="#A15862" d="M374,176c0-0.5,0.7-1,1.5-1c0.8,0,1.5,0.5,1.5,1c0,0.6-0.7,1-1.5,1C374.7,177,374,176.6,374,176z"/>
	<path fill="#A15862" d="M377,152.5c0-3.3,0.4-4.5,1.5-4.5s1.5,1.2,1.5,4.5s-0.4,4.5-1.5,4.5S377,155.8,377,152.5z"/>
	<path fill="#A15862" d="M291,154.5c0-0.8,0.7-1.5,1.5-1.5c0.8,0,1.5,0.7,1.5,1.5s-0.7,1.5-1.5,1.5C291.7,156,291,155.3,291,154.5z"
		/>
	<path fill="#A15862" d="M207,142.1c0-1.6,3.8-5.6,4.6-4.9c1.1,1.2-1.3,5.8-3.1,5.8C207.7,143,207,142.6,207,142.1z"/>
	<path fill="#A15862" d="M220,127.5c0-1.6,2.7-3.2,3.7-2.1c0.7,0.7-1.6,3.6-2.8,3.6C220.4,129,220,128.3,220,127.5z"/>
	<path fill="#A15862" d="M226.2,120.8c0.6-1.6,3.6-3.4,4.4-2.5c0.9,0.9-1.5,3.7-3.3,3.7C226.5,122,226,121.5,226.2,120.8z"/>
	<path fill="#A15862" d="M241.2,104.8c0.6-1.8,2.8-2.1,2.8-0.4c0,0.9-0.7,1.6-1.6,1.6C241.5,106,241,105.5,241.2,104.8z"/>
	<path fill="#A15862" d="M215.2,41.8c0.3-0.7,1.3-1.5,2.2-1.6c1.2-0.3,1.7,0.1,1.4,1c-0.3,0.7-1.3,1.5-2.2,1.6
		C215.4,43.1,214.9,42.7,215.2,41.8z"/>
	<path fill="#A15862" d="M221,35c0-0.5,0.7-1,1.5-1s1.5,0.5,1.5,1c0,0.6-0.7,1-1.5,1S221,35.6,221,35z"/>
	<path fill="#A15862" d="M237.2,17.9c0.2-0.7,1-1.5,1.7-1.7c0.8-0.3,1.2,0.1,0.9,0.9c-0.2,0.7-1,1.5-1.7,1.7
		C237.3,19.1,236.9,18.7,237.2,17.9z"/>
</g>
<g id="layer6">
	<path fill="#B73C4D" d="M181,328.5c0-0.8,0.7-1.5,1.5-1.5s1.5,0.7,1.5,1.5c0,0.8-0.7,1.5-1.5,1.5S181,329.3,181,328.5z"/>
	<path fill="#B73C4D" d="M174,327.5c0-0.8,0.5-1.5,1-1.5c0.6,0,1,0.7,1,1.5c0,0.8-0.4,1.5-1,1.5C174.5,329,174,328.3,174,327.5z"/>
	<path fill="#B73C4D" d="M166,325c0-0.5,0.7-1,1.5-1s1.5,0.5,1.5,1c0,0.6-0.7,1-1.5,1S166,325.6,166,325z"/>
	<path fill="#B73C4D" d="M155.8,321.8c-2.8-1-3.8-2.8-1.5-2.8c2.9,0,5.7,1.3,5.7,2.6C160,323.2,159.5,323.2,155.8,321.8z"/>
	<path fill="#B73C4D" d="M148,317c0-0.5,0.7-1,1.5-1s1.5,0.5,1.5,1c0,0.6-0.7,1-1.5,1S148,317.6,148,317z"/>
	<path fill="#B73C4D" d="M141,311c0-0.5,1.1-1,2.5-1c1.4,0,2.5,0.5,2.5,1c0,0.6-1.1,1-2.5,1C142.1,312,141,311.6,141,311z"/>
	<path fill="#B73C4D" d="M262,283.5c0-0.8,0.9-1.5,2-1.5s2,0.7,2,1.5c0,0.8-0.9,1.5-2,1.5S262,284.3,262,283.5z"/>
	<path fill="#B73C4D" d="M108,280.5c0-0.8,0.5-1.5,1-1.5c0.6,0,1,0.7,1,1.5c0,0.8-0.4,1.5-1,1.5C108.5,282,108,281.3,108,280.5z"/>
	<path fill="#B73C4D" d="M111.2,278.8c0.6-1.8,2.8-2.1,2.8-0.4c0,0.9-0.7,1.6-1.6,1.6S111,279.5,111.2,278.8z"/>
	<path fill="#B73C4D" d="M290,277c0-1.1,0.7-2,1.5-2c0.8,0,1.5-0.7,1.5-1.5c0-0.9,0.9-1.5,2.5-1.5c3.2,0,3.3,1.8,0.1,2.6
		c-1.3,0.3-2.6,1.4-2.9,2.5C292,279.6,290,279.6,290,277z"/>
	<path fill="#B73C4D" d="M306.5,266.9c-0.8-2.6,0.6-4.2,2.8-3.3c1.8,0.7,2.3,2.4,0.7,2.4c-0.5,0-1,0.7-1,1.5
		C309,269.7,307.2,269.3,306.5,266.9z"/>
	<path fill="#B73C4D" d="M326,255c0-0.5,0.7-1,1.5-1c0.8,0,1.5,0.5,1.5,1c0,0.6-0.7,1-1.5,1C326.7,256,326,255.6,326,255z"/>
	<path fill="#B73C4D" d="M330,252c0-0.5,0.7-1,1.5-1c0.8,0,1.5,0.5,1.5,1c0,0.6-0.7,1-1.5,1C330.7,253,330,252.6,330,252z"/>
	<path fill="#B73C4D" d="M85,245c0-0.5,0.7-1,1.5-1c0.8,0,1.5,0.5,1.5,1c0,0.6-0.7,1-1.5,1C85.7,246,85,245.6,85,245z"/>
	<path fill="#B73C4D" d="M170,225c0-0.5,0.7-1,1.5-1s1.5,0.5,1.5,1c0,0.6-0.7,1-1.5,1S170,225.6,170,225z"/>
	<path fill="#B73C4D" d="M349,224c0-0.5,0.7-1,1.5-1c0.8,0,1.5,0.5,1.5,1c0,0.6-0.7,1-1.5,1C349.7,225,349,224.6,349,224z"/>
	<path fill="#B73C4D" d="M79.7,222.3c-1.2-1.1-0.8-2.3,0.8-2.3c0.8,0,1.5,0.7,1.5,1.5C82,223.1,80.8,223.5,79.7,222.3z"/>
	<path fill="#B73C4D" d="M167.6,220.4c-0.8-2.2-0.8-2.4,0.8-2.4c1.2,0,2.6,2,2.6,3.6C171,222.8,168.1,221.8,167.6,220.4z"/>
	<path fill="#B73C4D" d="M78,211c0-1.1,0.7-2,1.5-2c0.8,0,1.5,0.9,1.5,2c0,1.1-0.7,2-1.5,2C78.7,213,78,212.1,78,211z"/>
	<path fill="#B73C4D" d="M257,193.1c0-0.9,2.4-2.1,4.1-2.1c0.5,0,0.9,0.7,0.9,1.5c0,0.9-0.9,1.5-2.5,1.5
		C258.1,194,257,193.6,257,193.1z"/>
	<path fill="#B73C4D" d="M280,187.4c0-0.9,0.5-1.4,1.2-1.2c1.8,0.6,2.1,2.8,0.4,2.8C280.7,189,280,188.3,280,187.4z"/>
	<path fill="#B73C4D" d="M276.2,184.4c0.1-0.9,0.9-1.9,1.6-2.2c0.9-0.3,1.3,0.2,1,1.4c-0.1,0.9-0.9,1.9-1.6,2.2
		C276.3,186.1,275.9,185.6,276.2,184.4z"/>
	<path fill="#B73C4D" d="M282.2,176.8c0.6-1.8,2.8-2.1,2.8-0.4c0,0.9-0.7,1.6-1.6,1.6C282.5,178,282,177.5,282.2,176.8z"/>
	<path fill="#B73C4D" d="M288,168c0-0.5,0.7-1,1.5-1c0.8,0,1.5,0.5,1.5,1c0,0.6-0.7,1-1.5,1C288.7,169,288,168.6,288,168z"/>
	<path fill="#B73C4D" d="M375,167c0-0.5,0.7-1,1.5-1c0.8,0,1.5,0.5,1.5,1c0,0.6-0.7,1-1.5,1C375.7,168,375,167.6,375,167z"/>
	<path fill="#B73C4D" d="M290,162c0-0.5,0.7-1,1.5-1c0.8,0,1.5,0.5,1.5,1c0,0.6-0.7,1-1.5,1C290.7,163,290,162.6,290,162z"/>
	<path fill="#B73C4D" d="M210.2,136.8c0.6-1.8,2.8-2.1,2.8-0.4c0,0.9-0.7,1.6-1.6,1.6C210.5,138,210,137.5,210.2,136.8z"/>
	<path fill="#B73C4D" d="M212,129c0-0.5,0.7-1,1.5-1s1.5-0.4,1.5-1c0-0.5,0.7-1,1.5-1c2.4,0,1.8,2.7-0.7,3.4
		C212.6,130.2,212,130.1,212,129z"/>
	<path fill="#B73C4D" d="M221,125c0-0.5,0.7-1,1.5-1s1.5,0.5,1.5,1c0,0.6-0.7,1-1.5,1S221,125.6,221,125z"/>
	<path fill="#B73C4D" d="M219,118.5c0-0.8,0.5-1.5,1-1.5c0.6,0,1,0.7,1,1.5c0,0.8-0.4,1.5-1,1.5C219.5,120,219,119.3,219,118.5z"/>
	<path fill="#B73C4D" d="M227.3,117.5c-0.3-0.9-0.3-1.8-0.1-2.1c0.9-0.9,3.8,0.8,3.8,2.2C231,119.5,228.1,119.4,227.3,117.5z"/>
	<path fill="#B73C4D" d="M229,113.4c0-1.7,2.2-1.4,2.8,0.4c0.2,0.7-0.3,1.2-1.2,1.2C229.7,115,229,114.3,229,113.4z"/>
	<path fill="#B73C4D" d="M238,107.2c0-1,4.3-5.2,5.3-5.2c1.4,0,0.7,2.7-1.1,4.3C240.2,108.1,238,108.5,238,107.2z"/>
	<path fill="#B73C4D" d="M207,90.5c0-0.8,0.7-1.5,1.5-1.5s1.5,0.7,1.5,1.5c0,0.8-0.7,1.5-1.5,1.5S207,91.3,207,90.5z"/>
	<path fill="#B73C4D" d="M216,49c0-0.5,0.7-1,1.5-1s1.5,0.5,1.5,1c0,0.6-0.7,1-1.5,1S216,49.6,216,49z"/>
	<path fill="#B73C4D" d="M223.2,33.9c0.2-0.7,1-1.5,1.7-1.7c0.8-0.3,1.2,0.1,0.9,0.9c-0.2,0.7-1,1.5-1.7,1.7
		C223.3,35.1,222.9,34.7,223.2,33.9z"/>
	<path fill="#B73C4D" d="M228.2,28.8c0.6-1.7,3.6-3.4,4.4-2.5c0.4,0.4-0.1,1.4-1.2,2.2C229.1,30.3,227.7,30.4,228.2,28.8z"/>
	<path fill="#B73C4D" d="M239,17c0-0.5,0.7-1,1.5-1s1.5,0.5,1.5,1c0,0.6-0.7,1-1.5,1S239,17.6,239,17z"/>
</g>
<g id="layer7">
	<path fill="#AF4E6C" d="M189,331.5c0-0.8,0.5-1.5,1-1.5c0.6,0,1,0.7,1,1.5c0,0.8-0.4,1.5-1,1.5C189.5,333,189,332.3,189,331.5z"/>
	<path fill="#AF4E6C" d="M203.3,327.9c0.4-3,0.7-22.6,0.7-43.6c0-33.4,0.2-38.3,1.5-38.3s1.5,5,1.4,39.3c0,40.3-0.4,46.7-2.8,47.5
		C203,333.2,202.8,332.3,203.3,327.9z"/>
	<path fill="#AF4E6C" d="M177.7,330.3c-1.2-1.1-0.8-2.3,0.8-2.3c0.8,0,1.5,0.7,1.5,1.5C180,331.1,178.8,331.5,177.7,330.3z"/>
	<path fill="#AF4E6C" d="M160,323.5c0-0.8,0.5-1.5,1-1.5c0.6,0,1,0.7,1,1.5c0,0.8-0.4,1.5-1,1.5C160.5,325,160,324.3,160,323.5z"/>
	<path fill="#AF4E6C" d="M271,283.5c0-0.8,0.5-1.5,1-1.5c0.6,0,1,0.7,1,1.5c0,0.8-0.4,1.5-1,1.5C271.5,285,271,284.3,271,283.5z"/>
	<path fill="#AF4E6C" d="M93,263c0-0.5,0.7-1,1.5-1c0.8,0,1.5,0.5,1.5,1c0,0.6-0.7,1-1.5,1C93.7,264,93,263.6,93,263z"/>
	<path fill="#AF4E6C" d="M90,259c0-0.5,0.7-1,1.5-1c0.8,0,1.5,0.5,1.5,1c0,0.6-0.7,1-1.5,1C90.7,260,90,259.6,90,259z"/>
	<path fill="#AF4E6C" d="M324.2,258.4c0.1-0.9,0.9-1.9,1.6-2.2c0.9-0.3,1.3,0.2,1,1.4c-0.1,0.9-0.9,1.9-1.6,2.2
		C324.3,260.1,323.9,259.6,324.2,258.4z"/>
	<path fill="#AF4E6C" d="M86,247c0-0.5,0.7-1,1.5-1c0.8,0,1.5,0.5,1.5,1c0,0.6-0.7,1-1.5,1C86.7,248,86,247.6,86,247z"/>
	<path fill="#AF4E6C" d="M203,243c0-0.5,0.7-1,1.5-1s1.5,0.5,1.5,1c0,0.6-0.7,1-1.5,1S203,243.6,203,243z"/>
	<path fill="#AF4E6C" d="M194.4,239.9c-1-1.7,0.8-2.8,3.9-2.2c3.7,0.7,3.5,3.3-0.2,3.3C196.4,241,194.8,240.5,194.4,239.9z"/>
	<path fill="#AF4E6C" d="M349,232.5c0-0.8,0.5-1.5,1-1.5c0.6,0,1,0.7,1,1.5s-0.4,1.5-1,1.5C349.5,234,349,233.3,349,232.5z"/>
	<path fill="#AF4E6C" d="M172,225c0-0.5,0.7-1,1.5-1s1.5,0.5,1.5,1c0,0.6-0.7,1-1.5,1S172,225.6,172,225z"/>
	<path fill="#AF4E6C" d="M355,223c0-0.5,0.7-1,1.5-1c0.8,0,1.5,0.5,1.5,1c0,0.6-0.7,1-1.5,1C355.7,224,355,223.6,355,223z"/>
	<path fill="#AF4E6C" d="M75,200.5c0-1.6,0.6-2.5,1.5-2.5s1.5,0.9,1.5,2.5c0,1.6-0.6,2.5-1.5,2.5S75,202.1,75,200.5z"/>
	<path fill="#AF4E6C" d="M159,195c0-0.5,0.7-1,1.5-1s1.5,0.5,1.5,1c0,0.6-0.7,1-1.5,1S159,195.6,159,195z"/>
	<path fill="#AF4E6C" d="M250,193.4c0-0.8,0.7-1.5,1.5-1.5c0.8-0.1,2.1-0.2,2.8-0.3c0.6-0.1,1.2,0.6,1.2,1.4c0,0.9-1.1,1.5-2.7,1.7
		C250.9,194.8,250,194.4,250,193.4z"/>
	<path fill="#AF4E6C" d="M262,190.5c0-1.7,0.9-1.9,2.8-0.6c1.1,0.7,1,1-0.3,1.5C262.2,192.3,262,192.2,262,190.5z"/>
	<path fill="#AF4E6C" d="M371,187.6c0-0.7,0.7-1.9,1.5-2.6c1.3-1.1,1.5-0.8,1.5,1.4c0,1.6-0.5,2.6-1.5,2.6
		C371.7,189,371,188.4,371,187.6z"/>
	<path fill="#AF4E6C" d="M270,187c0-0.5,0.7-1,1.5-1c0.8,0,1.5,0.5,1.5,1c0,0.6-0.7,1-1.5,1C270.7,188,270,187.6,270,187z"/>
	<path fill="#AF4E6C" d="M278,180.5c0-0.8,0.5-1.5,1-1.5c0.6,0,1,0.7,1,1.5s-0.4,1.5-1,1.5C278.5,182,278,181.3,278,180.5z"/>
	<path fill="#AF4E6C" d="M282,176.4c0-0.3,0.8-1.8,1.9-3.2c1-1.5,2.1-3.7,2.5-4.9c0.4-1.1,1.3-2.7,2.1-3.3c2.8-2.3,1.7,2.1-1.7,7.2
		C283.8,176.4,282,178.1,282,176.4z"/>
	<path fill="#AF4E6C" d="M290.2,157.3c0.2-1,1-1.8,1.8-1.8c2.2,0,1.8,2.9-0.3,3.3C290.3,159.1,289.9,158.7,290.2,157.3z"/>
	<path fill="#AF4E6C" d="M294.5,148c-0.4-0.7-0.3-1.6,0.3-2.2c1.4-1.4,4.5-0.2,4,1.5C298.2,148.9,295.4,149.4,294.5,148z"/>
	<path fill="#AF4E6C" d="M205.7,142.3c-1-0.9-0.8-5.6,0.2-7.2c0.7-1.1,1.2-0.4,2,2.5c0.6,2.1,1.1,4.2,1.1,4.7
		C209,143.2,206.6,143.2,205.7,142.3z"/>
	<path fill="#AF4E6C" d="M246.3,93.6c0.1-5,0.5-7.6,1.3-7.6c2.7,0,2.6,9.3-0.2,13.4C246.3,101,246.1,100.1,246.3,93.6z"/>
	<path fill="#AF4E6C" d="M205.2,52.8c0.6-1.8,2.8-2.1,2.8-0.4c0,0.9-0.7,1.6-1.6,1.6C205.5,54,205,53.5,205.2,52.8z"/>
	<path fill="#AF4E6C" d="M224.2,31.9c0.2-0.7,1-1.5,1.7-1.7c0.8-0.3,1.2,0.1,0.9,0.9c-0.2,0.7-1,1.5-1.7,1.7
		C224.3,33.1,223.9,32.7,224.2,31.9z"/>
	<path fill="#AF4E6C" d="M234,21.6c0-0.9,0.7-1.6,1.6-1.6c1.7,0,1.4,2.2-0.4,2.8C234.5,23,234,22.5,234,21.6z"/>
	<path fill="#AF4E6C" d="M246,20.3c0-3.5,1.3-6.3,2.7-6.3c1.2,0,1.4,0.7,0.9,3.1c-0.3,1.7-0.6,3.5-0.6,4s-0.7,0.9-1.5,0.9
		S246,21.2,246,20.3z"/>
	<path fill="#AF4E6C" d="M240,15.5c0-0.8,0.5-1.5,1-1.5c0.6,0,1,0.7,1,1.5c0,0.8-0.4,1.5-1,1.5C240.5,17,240,16.3,240,15.5z"/>
	<path fill="#AF4E6C" d="M245.5,10c-0.7-1.2,0.2-3,1.6-3c0.5,0,0.9,0.9,0.9,2C248,11.1,246.5,11.7,245.5,10z"/>
</g>
<g id="layer8">
	<path fill="#483D9D" d="M211,320.5c0-1.8,0.5-2.5,2-2.5c2.1,0,2.4,0.8,1.4,3.4C213.4,323.9,211,323.3,211,320.5z"/>
	<path fill="#483D9D" d="M242.7,288.4c-1.3-1.3-0.7-2.4,1.4-2.4c1.1,0,1.9,0.5,1.7,1.2C245.3,288.6,243.6,289.3,242.7,288.4z"/>
	<path fill="#483D9D" d="M215.2,235.3c-2.5-2.8-2.7-3.3-1.1-3.3c0.7,0,1.8-0.8,2.5-1.7c0.7-1,1.6-1.5,2-1.1c0.4,0.5,0,1.6-0.9,2.5
		c-1.2,1.4-1.3,2.3-0.5,3.6C218.7,238.1,217.7,238.1,215.2,235.3z"/>
	<path fill="#483D9D" d="M230.3,220.3c-1.8-0.7-1.6-3.3,0.2-3.3c0.8,0,1.5,0.9,1.5,2c0,1.1-0.1,2-0.2,1.9
		C231.6,220.9,230.9,220.6,230.3,220.3z"/>
	<path fill="#483D9D" d="M243,203.5c0-0.8,0.5-1.5,1-1.5c0.6,0,1,0.7,1,1.5s-0.4,1.5-1,1.5C243.5,205,243,204.3,243,203.5z"/>
	<path fill="#483D9D" d="M77,190c0-0.5,0.7-1,1.5-1c0.8,0,1.5,0.5,1.5,1c0,0.6-0.7,1-1.5,1C77.7,191,77,190.6,77,190z"/>
	<path fill="#483D9D" d="M80,175c0-0.5,0.7-1,1.5-1c0.8,0,1.5,0.5,1.5,1c0,0.6-0.7,1-1.5,1C80.7,176,80,175.6,80,175z"/>
	<path fill="#483D9D" d="M163,172.1c0-0.6,0.4-1.2,1-1.6c0.5-0.3,0.7-1.2,0.3-2c-0.3-1,0.1-1.5,1.2-1.5c1.2,0,1.5,0.5,1.1,1.6
		c-0.3,0.9-0.6,2.2-0.6,3s-0.7,1.4-1.5,1.4S163,172.6,163,172.1z"/>
	<path fill="#483D9D" d="M77,170c0-0.5,0.7-1,1.5-1c0.8,0,1.5,0.5,1.5,1c0,0.6-0.7,1-1.5,1C77.7,171,77,170.6,77,170z"/>
	<path fill="#483D9D" d="M83.2,148.8c0.6-1.8,2.8-2.1,2.8-0.4c0,0.9-0.7,1.6-1.6,1.6S83,149.5,83.2,148.8z"/>
	<path fill="#483D9D" d="M86,142c0-0.5,0.7-1,1.5-1c0.8,0,1.5,0.5,1.5,1c0,0.6-0.7,1-1.5,1C86.7,143,86,142.6,86,142z"/>
	<path fill="#483D9D" d="M293.2,132.8c0.7-2,4.8-2.3,4.8-0.4c0,1.1-0.9,1.6-2.6,1.6C293.8,134,293,133.5,293.2,132.8z"/>
	<path fill="#483D9D" d="M290,131c0-0.5,0.7-1,1.5-1c0.8,0,1.5,0.5,1.5,1c0,0.6-0.7,1-1.5,1C290.7,132,290,131.6,290,131z"/>
	<path fill="#483D9D" d="M91,128.5c0-0.8,0.5-1.5,1-1.5c0.6,0,1,0.7,1,1.5c0,0.8-0.4,1.5-1,1.5C91.5,130,91,129.3,91,128.5z"/>
	<path fill="#483D9D" d="M374.2,123.8c0.3-0.7,1.3-1.5,2.2-1.6c1.2-0.3,1.7,0.1,1.4,1c-0.3,0.7-1.3,1.5-2.2,1.6
		C374.4,125.1,373.9,124.7,374.2,123.8z"/>
	<path fill="#483D9D" d="M95,121.1c0-1.2,0.6-2.1,1.5-2.1c0.8,0,1.5,0.4,1.5,0.9s-0.7,1.4-1.5,2.1C95.2,123,95,122.9,95,121.1z"/>
	<path fill="#483D9D" d="M283,115.4c0-0.9,0.5-1.4,1.2-1.2c1.8,0.6,2.1,2.8,0.4,2.8C283.7,117,283,116.3,283,115.4z"/>
	<path fill="#483D9D" d="M278,109.5c0-1.7,0.2-1.8,2.4-0.9c2.3,0.9,2,2.4-0.4,2.4C278.9,111,278,110.3,278,109.5z"/>
	<path fill="#483D9D" d="M278,103.5c0-0.8,0.9-1.5,2-1.5c2.4,0,2.7,1.5,0.4,2.4C278.2,105.3,278,105.2,278,103.5z"/>
	<path fill="#483D9D" d="M111.4,99.8c0.3-1.3,0.6-2.6,0.6-3c0-0.5,0.4-0.8,0.9-0.8s0.9,1.4,0.9,3c-0.1,1.9-0.6,3-1.6,3
		S110.9,101.3,111.4,99.8z"/>
	<path fill="#483D9D" d="M255,96.4c0-1.5,1.9-2.2,4.3-1.6c2.9,0.8,2,3.1-1.3,3C256.3,97.7,255,97.2,255,96.4z"/>
	<path fill="#483D9D" d="M264,95c0-0.5,0.7-1,1.5-1c0.8,0,1.5,0.5,1.5,1c0,0.6-0.7,1-1.5,1C264.7,96,264,95.6,264,95z"/>
	<path fill="#483D9D" d="M362,91.6c0-1.6,0.5-2.6,1.5-2.6c0.8,0,1.5,0.6,1.5,1.4c0,0.7-0.7,1.9-1.5,2.6
		C362.2,94.1,362,93.8,362,91.6z"/>
	<path fill="#483D9D" d="M125.1,85.1c-1.2-0.8-0.9-1.1,1.2-1.7c3.2-0.7,4.9,0.3,2.7,1.6C127.1,86.2,126.9,86.2,125.1,85.1z"/>
	<path fill="#483D9D" d="M136.7,77.4c-1.3-1.3-0.7-2.4,1.4-2.4c1.1,0,1.9,0.5,1.7,1.2C139.3,77.6,137.6,78.3,136.7,77.4z"/>
	<path fill="#483D9D" d="M141.5,75.1c-0.8-2.6,0.4-5.1,2.6-5.1c1.9,0,2.5,2.3,1.3,5.4C144.6,77.6,142.3,77.4,141.5,75.1z"/>
	<path fill="#483D9D" d="M354,75c0-0.5,0.7-1,1.5-1c0.8,0,1.5,0.5,1.5,1c0,0.6-0.7,1-1.5,1C354.7,76,354,75.6,354,75z"/>
	<path fill="#483D9D" d="M355,68.1c-1.5-2.8-1.3-3.3,1-2.1c1.1,0.6,2,1.7,2,2.5C358,70.6,356.3,70.3,355,68.1z"/>
	<path fill="#483D9D" d="M158,68c0-1.3,2.8-2.5,3.8-1.6c0.3,0.4,0,1.1-0.8,1.6C159,69.3,158,69.2,158,68z"/>
	<path fill="#483D9D" d="M346.7,61.3c-1.2-1.1-0.8-2.3,0.8-2.3c0.8,0,1.5,0.7,1.5,1.5C349,62.1,347.8,62.5,346.7,61.3z"/>
	<path fill="#483D9D" d="M345,56c0-0.5,0.7-1,1.5-1c0.8,0,1.5,0.5,1.5,1c0,0.6-0.7,1-1.5,1C345.7,57,345,56.6,345,56z"/>
	<path fill="#483D9D" d="M337.7,51.8c-0.8-2.8-0.1-3.5,2.1-2.2c2.2,1.4,2.2,3.8,0.1,4.2C338.9,54,338,53.2,337.7,51.8z"/>
	<path fill="#483D9D" d="M331.7,42.5c-0.9-0.9-1.7-2.3-1.7-3.1c0-1-1.2-1.4-4-1.4c-3.9,0-4-0.1-4-3.6c0-2.1,0.4-3.3,1-2.9
		c0.6,0.3,1,1.5,1,2.6c0,1.4,0.7,1.9,3,1.9c1.7,0,3,0.5,3,1c0,0.6,0.9,1,1.9,1c2.6,0,3.3,1.3,2.3,4
		C333.4,44.1,333.3,44.1,331.7,42.5z"/>
	<path fill="#483D9D" d="M306.3,28.8c0.2-0.7,1.2-1.3,2.2-1.3s2,0.6,2.3,1.3c0.2,0.7-0.6,1.2-2.3,1.2C306.8,30,306,29.5,306.3,28.8z
		"/>
	<path fill="#483D9D" d="M314,28.5c0-0.8,0.7-1.5,1.5-1.5c0.8,0,1.5,0.7,1.5,1.5c0,0.8-0.7,1.5-1.5,1.5C314.7,30,314,29.3,314,28.5z
		"/>
	<path fill="#483D9D" d="M290,21.1c0-1.3,2.7-2.1,4.5-1.5c2.5,1,1.7,2.4-1.5,2.4C291.4,22,290,21.6,290,21.1z"/>
	<path fill="#483D9D" d="M297,19.5c0-0.9-0.9-1.5-2.5-1.5c-3.4,0-3.2-1.6,0.3-2.3c3.2-0.6,2.9-0.8,3.7,2.6c0.5,1.7,0.3,2.7-0.4,2.7
		C297.5,21,297,20.3,297,19.5z"/>
	<path fill="#483D9D" d="M282.8,13.9c-2.9-1.6-2.1-2.9,1.5-2.2c4,0.7,4.5,1.2,2.7,2.3C285.2,15.2,284.9,15.2,282.8,13.9z"/>
	<path fill="#483D9D" d="M267.3,12.3c-2.1-0.8-1.5-4.3,0.7-4.3c1.5,0,2,0.7,2,2.5C270,13,269.6,13.3,267.3,12.3z"/>
</g>
<g id="layer9">
	<path fill="#974B73" d="M204,332c0-0.5,0.7-1,1.5-1s1.5,0.5,1.5,1c0,0.6-0.7,1-1.5,1S204,332.6,204,332z"/>
	<path fill="#974B73" d="M204,328c0-0.5,0.7-1,1.5-1s1.5,0.5,1.5,1c0,0.6-0.7,1-1.5,1S204,328.6,204,328z"/>
	<path fill="#974B73" d="M136,310.5c0-0.8,0.5-1.5,1-1.5c0.6,0,1,0.7,1,1.5c0,0.8-0.4,1.5-1,1.5C136.5,312,136,311.3,136,310.5z"/>
	<path fill="#974B73" d="M204,245c0-0.5,0.7-1,1.5-1s1.5,0.5,1.5,1c0,0.6-0.7,1-1.5,1S204,245.6,204,245z"/>
	<path fill="#974B73" d="M204,241.5c0-0.8,0.5-1.5,1-1.5c0.6,0,1,0.7,1,1.5s-0.4,1.5-1,1.5C204.5,243,204,242.3,204,241.5z"/>
	<path fill="#974B73" d="M75.5,194c-0.3-0.5-0.4-1.4,0-2c0.3-0.5,17.2-0.9,43.5-1c36.5,0,43,0.2,43,1.4c0,1.1-2.5,1.6-11.2,2.1
		c-12.3,0.8-69.2,0-70.7-0.9c-0.5-0.4-1.2-0.2-1.6,0.4C77.7,195.3,76.3,195.3,75.5,194z"/>
	<path fill="#974B73" d="M292.4,147.9c-1-1.7,1.3-3.6,2.7-2.2c1.2,1.2,0.4,3.3-1.1,3.3C293.5,149,292.8,148.5,292.4,147.9z"/>
	<path fill="#974B73" d="M205,143c0-0.5,0.7-1,1.5-1s1.5,0.5,1.5,1c0,0.6-0.7,1-1.5,1S205,143.6,205,143z"/>
	<path fill="#974B73" d="M213,135c0-0.5,0.7-1,1.5-1s1.5,0.5,1.5,1c0,0.6-0.7,1-1.5,1S213,135.6,213,135z"/>
	<path fill="#974B73" d="M247.1,53c0.1-35.3,0.4-45.3,1.4-46.7c1.8-2.5,2.9-1,1.8,2.4c-0.6,1.8-0.6,3.7,0.1,5.5
		c0.7,1.8,0.7,3.1,0.1,3.7c-0.6,0.6-0.8,15.3-0.4,39.3c0.3,21.1,0.3,38.9,0.1,39.6c-0.2,0.6-1,1.2-1.8,1.2
		C247.3,98,247.1,90.4,247.1,53z"/>
	<path fill="#974B73" d="M204,53c0-0.5,0.7-1,1.5-1s1.5,0.5,1.5,1c0,0.6-0.7,1-1.5,1S204,53.6,204,53z"/>
</g>
<g id="layer10">
	<path fill="#6F5095" d="M205,327.9c0-1.4,0.5-1.9,1.7-1.7c2.6,0.5,2.9,3.8,0.4,3.8C205.6,330,205,329.4,205,327.9z"/>
	<path fill="#6F5095" d="M234,300.5c0-0.8,0.5-1.5,1-1.5c0.6,0,1,0.7,1,1.5c0,0.8-0.4,1.5-1,1.5C234.5,302,234,301.3,234,300.5z"/>
	<path fill="#6F5095" d="M238.2,296.4c0.4-2,3.4-4.1,4.4-3.1c0.8,0.8-2.4,4.7-3.8,4.7C238.3,298,238,297.3,238.2,296.4z"/>
	<path fill="#6F5095" d="M247.5,281.8c-0.3-2.4-0.5-18.7-0.3-36.3c0.3-27.6,0.5-32,1.8-32s1.5,4.8,1.8,36.3
		c0.2,31.1,0,36.2-1.2,36.2C248.6,286,247.9,284.5,247.5,281.8z"/>
	<path fill="#6F5095" d="M205.2,242.3c0.4-5.2,2.8-5.6,2.8-0.4c0,3-0.4,4.1-1.6,4.1C205.3,246,205,245.1,205.2,242.3z"/>
	<path fill="#6F5095" d="M226,217.6c0-0.9,0.7-1.6,1.6-1.6c1.7,0,1.4,2.2-0.4,2.8C226.5,219,226,218.5,226,217.6z"/>
	<path fill="#6F5095" d="M231,212.4c0-0.9,0.5-1.4,1.2-1.2c1.8,0.6,2.1,2.8,0.4,2.8C231.7,214,231,213.3,231,212.4z"/>
	<path fill="#6F5095" d="M247.7,210.4c-0.4-0.4-0.7-3-0.7-5.7c0-3.6-0.5-5.3-1.7-6.2c-1.7-1.2-1.7-1.4,0.1-3.4
		c2.6-2.8,5-2.8,4.3,0.1c-0.4,1.2-0.2,2.7,0.4,3.4c1.3,1.6,0.7,11.6-0.7,12.1C248.9,210.9,248.1,210.7,247.7,210.4z"/>
	<path fill="#6F5095" d="M154.7,192.4c-2-2.1-0.5-3.4,3.9-3.4c3.8,0,4.5,0.3,4.2,1.8c-0.2,1.1-1.4,1.8-3.8,2
		C157,193,155.1,192.8,154.7,192.4z"/>
	<path fill="#6F5095" d="M75,180.5c0-1.6,0.6-2.5,1.5-2.5s1.5,0.9,1.5,2.5c0,1.6-0.6,2.5-1.5,2.5S75,182.1,75,180.5z"/>
	<path fill="#6F5095" d="M163,177c0-0.5,0.7-1,1.5-1s1.5,0.5,1.5,1c0,0.6-0.7,1-1.5,1S163,177.6,163,177z"/>
	<path fill="#6F5095" d="M188.2,148.8c0.6-1.8,2.8-2.1,2.8-0.4c0,0.9-0.7,1.6-1.6,1.6C188.5,150,188,149.5,188.2,148.8z"/>
	<path fill="#6F5095" d="M292.5,146c-1-1.5-0.2-2.1,3.1-2.3c2-0.1,2.9,0.3,2.9,1.3C298.5,146.8,293.5,147.6,292.5,146z"/>
	<path fill="#6F5095" d="M377.6,144.5c-0.9-2.3-0.8-2.5,0.9-2.5c1.7,0,1.9,0.9,0.6,2.8C378.4,145.9,378.1,145.8,377.6,144.5z"/>
	<path fill="#6F5095" d="M204,139c0-3.8,0.4-5,1.5-5c1.1,0,1.5,1.2,1.5,5s-0.4,5-1.5,5C204.4,144,204,142.8,204,139z"/>
	<path fill="#6F5095" d="M267.5,103.9c-0.4-0.6-0.4-1.3-0.1-1.6c0.8-0.8,3.6,0.5,3.6,1.7C271,105.3,268.3,105.3,267.5,103.9z"/>
	<path fill="#6F5095" d="M249.6,98.4c-0.9-2.2-0.8-2.4,0.9-1.8c0.8,0.4,1.5,1.2,1.5,2C252,100.5,250.4,100.4,249.6,98.4z"/>
	<path fill="#6F5095" d="M248,52c0-29.6,0.2-34,1.5-34s1.5,4.4,1.5,34s-0.2,34-1.5,34S248,81.6,248,52z"/>
	<path fill="#6F5095" d="M173,56.4c0-0.9,0.5-1.4,1.2-1.2c1.8,0.6,2.1,2.8,0.4,2.8C173.7,58,173,57.3,173,56.4z"/>
	<path fill="#6F5095" d="M186,53.5c0-0.8,0.7-1.5,1.5-1.5s1.5,0.7,1.5,1.5s-0.7,1.5-1.5,1.5S186,54.3,186,53.5z"/>
	<path fill="#6F5095" d="M336,42.5c0-0.8,0.5-1.5,1-1.5c0.6,0,1,0.7,1,1.5s-0.4,1.5-1,1.5C336.5,44,336,43.3,336,42.5z"/>
	<path fill="#6F5095" d="M248.2,11c0-1.9,0.4-3,1.3-3c0.9,0,1.3,1.1,1.3,3c-0.1,1.7-0.6,3-1.3,3S248.3,12.7,248.2,11z"/>
</g>
<g id="layer11">
	<path fill="#CD4666" d="M198.1,331.1c-1.1-0.7-0.6-1.2,2-1.9c4-1.1,4.1-1,3.3,1.2C202.7,332.2,200.3,332.5,198.1,331.1z"/>
	<path fill="#CD4666" d="M169.5,327.9c-0.9-1.3-0.7-1.5,3.3-2.2c3.8-0.8,4.7,1.7,1,2.7C170.7,329.2,170.2,329.2,169.5,327.9z"/>
	<path fill="#CD4666" d="M202.7,326.3c-1.1-1-0.8-4.1,0.4-4.9c1.6-1,2.9,0.9,2.3,3.4C204.8,327,203.9,327.5,202.7,326.3z"/>
	<path fill="#CD4666" d="M161.4,322.9c-0.3-0.6-1.9-0.9-3.5-0.5c-3.5,0.7-4.2-1.8-0.8-2.7c2.6-0.7,6.9,1.2,6.9,3
		C164,324.3,162.4,324.4,161.4,322.9z"/>
	<path fill="#CD4666" d="M141.7,315.3c-0.4-0.3-0.7-1.7-0.7-3c0-1.8,0.5-2.3,2.5-2.3c2.1,0,2.5,0.5,2.5,3c0,2.2-0.5,3-1.8,3
		C143.2,316,142,315.7,141.7,315.3z"/>
	<path fill="#CD4666" d="M202,313c-0.9-1.6-0.8-2.5,0-3.5c0.9-1,1.2-7.9,1.1-23c-0.1-18.2,0.2-21.5,1.4-21.5s1.4,3.6,1.2,24.7
		c-0.1,17.9-0.5,24.7-1.4,25C203.7,314.9,202.6,314.2,202,313z"/>
	<path fill="#CD4666" d="M133,306c0-0.5,0.7-1,1.5-1s1.5,0.5,1.5,1c0,0.6-0.7,1-1.5,1S133,306.6,133,306z"/>
	<path fill="#CD4666" d="M114.3,292.5c-0.8-2.2,0.6-3.3,1.7-1.5c1.3,2,1.2,3,0,3C115.4,294,114.7,293.3,114.3,292.5z"/>
	<path fill="#CD4666" d="M110.5,286c-2-2.2-1.5-3.6,1-2.7c0.8,0.4,1.5,1.6,1.5,2.7C113,288.5,112.8,288.5,110.5,286z"/>
	<path fill="#CD4666" d="M256,285.5c0-0.8,0.7-1.5,1.5-1.5c0.8,0,1.5,0.7,1.5,1.5c0,0.8-0.7,1.5-1.5,1.5
		C256.7,287,256,286.3,256,285.5z"/>
	<path fill="#CD4666" d="M261,284.5c0-0.8,0.5-1.5,1.1-1.5s1.7-0.7,2.5-1.5c0.9-0.8,2-1.5,2.5-1.5s0.9,0.7,0.9,1.5
		c0,0.8-0.4,1.5-1,1.5c-0.5,0-1,0.7-1,1.5c0,0.9-0.9,1.5-2.5,1.5S261,285.4,261,284.5z"/>
	<path fill="#CD4666" d="M282.5,279.9c-0.4-0.6-0.4-1.3-0.1-1.6c0.8-0.8,3.6,0.5,3.6,1.7C286,281.3,283.3,281.3,282.5,279.9z"/>
	<path fill="#CD4666" d="M290,276.4c0-0.9,0.5-1.4,1.2-1.2c1.8,0.6,2.1,2.8,0.4,2.8C290.7,278,290,277.3,290,276.4z"/>
	<path fill="#CD4666" d="M100.8,273.3c-2-0.5-2.3-1.8-0.8-2.8c1-0.6,5,1.5,5,2.7C105,274,103.6,274.1,100.8,273.3z"/>
	<path fill="#CD4666" d="M305.4,269.4c0.3-0.8,0.6-1.8,0.6-2c0-0.2,0.5-0.4,1-0.4c1.6,0,1.1,2.7-0.6,3.4
		C305.2,270.9,304.9,270.6,305.4,269.4z"/>
	<path fill="#CD4666" d="M310,267.6c0-1.5,1.8-3.1,2.6-2.3c0.7,0.7-0.7,3.7-1.7,3.7C310.4,269,310,268.4,310,267.6z"/>
	<path fill="#CD4666" d="M94.4,263.9c-1-1.7,1.3-3.6,2.7-2.2c1.2,1.2,0.4,3.3-1.1,3.3C95.5,265,94.8,264.5,94.4,263.9z"/>
	<path fill="#CD4666" d="M314.7,264.3c-1.3-1.2-0.7-2.3,1.3-2.3c1.1,0,2,0.7,2,1.5C318,265,315.9,265.6,314.7,264.3z"/>
	<path fill="#CD4666" d="M203.1,253.5c0.1-6.9,0.5-9.5,1.4-9.5c0.9,0,1.3,2.6,1.4,9.5c0.2,8.1-0.1,9.5-1.4,9.5
		S202.9,261.6,203.1,253.5z"/>
	<path fill="#CD4666" d="M322,259.1c0-1.8,2.6-4.8,3.4-4c0.2,0.2,0.2,1.6-0.1,3.2C324.7,261.3,322,262,322,259.1z"/>
	<path fill="#CD4666" d="M327,256.2c0-1.1,4.1-4.5,4.7-3.9c0.7,0.8-2.1,4.7-3.4,4.7C327.6,257,327,256.7,327,256.2z"/>
	<path fill="#CD4666" d="M88,248.5c0-0.8,0.7-1.5,1.5-1.5c0.8,0,1.5,0.7,1.5,1.5s-0.7,1.5-1.5,1.5C88.7,250,88,249.3,88,248.5z"/>
	<path fill="#CD4666" d="M198,241.5c0-0.8,0.9-1.5,2-1.5c1.1,0,2,0.7,2,1.5s-0.9,1.5-2,1.5C198.9,243,198,242.3,198,241.5z"/>
	<path fill="#CD4666" d="M85,240.6c0-0.8-0.6-1.7-1.2-1.9c-1-0.4-0.9-0.8,0.2-1.6c2.6-1.9,3.9-1.2,3.8,1.9
		C87.7,242,85,243.5,85,240.6z"/>
	<path fill="#CD4666" d="M342.2,238.8c0.6-1.8,2.8-2.1,2.8-0.4c0,0.9-0.7,1.6-1.6,1.6C342.5,240,342,239.5,342.2,238.8z"/>
	<path fill="#CD4666" d="M182,238c0-0.5-0.6-1-1.4-1s-1.7-0.9-2-2c-0.3-1.1-0.9-2.9-1.2-4c-0.4-1.4-0.1-2,1-2c0.9,0,1.6,0.8,1.6,1.8
		c0,0.9,1.3,2.3,3,3c3.3,1.5,3.9,3.6,1.4,4.6C182.3,239.2,182,239.2,182,238z"/>
	<path fill="#CD4666" d="M172.7,228.2c-2.3-2.5-2.1-2.9,0.8-2.9c2,0,2.5,0.5,2.5,2.3C176,230.5,174.9,230.6,172.7,228.2z"/>
	<path fill="#CD4666" d="M350,226.5c0-0.8,0.5-1.5,1-1.5c0.6,0,1,0.7,1,1.5s-0.4,1.5-1,1.5C350.5,228,350,227.3,350,226.5z"/>
	<path fill="#CD4666" d="M76.5,213.9c-0.4-0.6-0.5-1.3-0.2-1.6c0.8-0.7,4.7,0.7,4.7,1.8C81,215.4,77.3,215.2,76.5,213.9z"/>
	<path fill="#CD4666" d="M162.2,212.8c-1.6-1.6-1.5-2.8,0.3-2.8c0.8,0,1.5,0.9,1.5,2C164,214.3,163.8,214.4,162.2,212.8z"/>
	<path fill="#CD4666" d="M365.2,203.8c0.6-1.8,2.8-2.1,2.8-0.4c0,0.9-0.7,1.6-1.6,1.6C365.5,205,365,204.5,365.2,203.8z"/>
	<path fill="#CD4666" d="M77,196.6c0-3.4,1.6-4.1,4.1-1.7c2.5,2.3,1.8,4.1-1.7,4.1C77.5,199,77,198.5,77,196.6z"/>
	<path fill="#CD4666" d="M156.5,196c-0.4-0.7-0.3-1.6,0.3-2.2c1.4-1.4,4.5-0.2,4,1.5C160.2,196.9,157.4,197.4,156.5,196z"/>
	<path fill="#CD4666" d="M261.3,195.5c-1.9-2.1-1.6-3.2,0.9-3.9c2.5-0.6,5.2,1.3,3.1,2.1c-0.7,0.3-1.3,1.1-1.3,1.9
		C264,197.4,262.9,197.3,261.3,195.5z"/>
	<path fill="#CD4666" d="M255,192.5c0-0.8,0.7-1.5,1.5-1.5c0.8,0,1.5,0.7,1.5,1.5s-0.7,1.5-1.5,1.5C255.7,194,255,193.3,255,192.5z"
		/>
	<path fill="#CD4666" d="M369.2,183.4c2.1-4.6,3.3-6.4,4.3-6.4c1.5,0,2.8,4.1,1.7,5.2C374.1,183.3,368.7,184.4,369.2,183.4z"/>
	<path fill="#CD4666" d="M279.4,181.9c-1-1.7,1.3-3.6,2.7-2.2c1.2,1.2,0.4,3.3-1.1,3.3C280.5,183,279.8,182.5,279.4,181.9z"/>
	<path fill="#CD4666" d="M284,177c0-0.5,0.7-1,1.5-1c0.8,0,1.5,0.5,1.5,1c0,0.6-0.7,1-1.5,1C284.7,178,284,177.6,284,177z"/>
	<path fill="#CD4666" d="M373,173c0-0.5,0.7-1,1.5-1c0.8,0,1.5,0.5,1.5,1c0,0.6-0.7,1-1.5,1C373.7,174,373,173.6,373,173z"/>
	<path fill="#CD4666" d="M289.7,166.3c-1.2-1.1-0.8-2.3,0.8-2.3c0.8,0,1.5,0.7,1.5,1.5C292,167.1,290.8,167.5,289.7,166.3z"/>
	<path fill="#CD4666" d="M291,162c0-0.5,0.7-1,1.5-1c0.8,0,1.5,0.5,1.5,1c0,0.6-0.7,1-1.5,1C291.7,163,291,162.6,291,162z"/>
	<path fill="#CD4666" d="M293.2,158.8c-1.6-1.6-1.5-4.8,0.2-4.8c0.7,0,1.6,0.8,2,1.8c0.3,0.9,0.9,2.3,1.2,3
		C297.3,160.3,294.8,160.4,293.2,158.8z"/>
	<path fill="#CD4666" d="M297.3,147.8c-1.5-2.5,2.9-2.8,40.8-2.8c34.8,0,39.9,0.2,39.9,1.5c0,1.8-2.4,1.9-48.3,2
		C312.1,148.5,297.6,148.2,297.3,147.8z"/>
	<path fill="#CD4666" d="M206,138c0-0.5,0.7-1,1.5-1s1.5,0.5,1.5,1c0,0.6-0.7,1-1.5,1S206,138.6,206,138z"/>
	<path fill="#CD4666" d="M211.1,136.4c-1.1-1.4-1.1-1.8,0.4-3.2c1.6-1.6,1.7-1.6,1,0.6c-0.4,1.3-0.2,2.2,0.4,2.2
		c0.6,0,1.1,0.5,1.1,1C214,138.4,212.7,138.2,211.1,136.4z"/>
	<path fill="#CD4666" d="M228.3,115.5c0-1.4,0.3-2.2,0.8-1.9c0.5,0.3,0.9,1.1,0.9,1.9c0,0.8-0.4,1.6-0.9,1.9
		S228.3,116.9,228.3,115.5z"/>
	<path fill="#CD4666" d="M231,113.5c0-1.7,0.9-1.9,2.8-0.6c1.1,0.7,1,1-0.3,1.5C231.2,115.3,231,115.2,231,113.5z"/>
	<path fill="#CD4666" d="M238,105c0-0.5,0.7-1,1.5-1s1.5,0.5,1.5,1c0,0.6-0.7,1-1.5,1S238,105.6,238,105z"/>
	<path fill="#CD4666" d="M245,61.2c0-20.9,0.3-38.8,0.6-39.6c0.5-1.3,0.9-1.4,2.1-0.5c1.2,1,1.4,7,1.2,36.7
		c-0.1,35.3-0.5,40.2-2.7,41C245.3,99.1,245,90.2,245,61.2z"/>
	<path fill="#CD4666" d="M233.4,71.9c-1-1.7,1.3-3.6,2.7-2.2c1.2,1.2,0.4,3.3-1.1,3.3C234.5,73,233.8,72.5,233.4,71.9z"/>
	<path fill="#CD4666" d="M206.7,54.3c-1.2-1.1-0.8-2.3,0.8-2.3c0.8,0,1.5,0.7,1.5,1.5C209,55.1,207.8,55.5,206.7,54.3z"/>
	<path fill="#CD4666" d="M234,50.5c0-2.4,0.5-3.5,1.5-3.5s1.5,1.1,1.5,3.5c0,2.4-0.5,3.5-1.5,3.5S234,52.9,234,50.5z"/>
	<path fill="#CD4666" d="M216,43c0-0.5,0.7-1,1.5-1s1.5,0.5,1.5,1c0,0.6-0.7,1-1.5,1S216,43.6,216,43z"/>
	<path fill="#CD4666" d="M221.2,36.8c0.6-1.8,2.8-2.1,2.8-0.4c0,0.9-0.7,1.6-1.6,1.6C221.5,38,221,37.5,221.2,36.8z"/>
	<path fill="#CD4666" d="M230,27.5c0-0.9,0.9-1.5,2.1-1.5c1.8,0,1.9-0.2,0.9-1.5c-0.9-1.1-1-1.9-0.2-2.7c1.6-1.6,3.2,0,3.2,3.4
		c0,2.2-0.4,2.9-1.5,2.5c-0.8-0.4-1.7-0.2-2,0.3C231.6,29.5,230,29.2,230,27.5z"/>
	<path fill="#CD4666" d="M245.4,16.4c0.4-1.1-0.1-1.8-1.4-2.1c-2.3-0.6-2.4-0.8-1-3.4c1.6-2.9,3.7-2.3,5,1.6
		c1.2,3.8,0.7,5.5-1.7,5.5C245.3,18,245,17.4,245.4,16.4z"/>
</g>
<g id="layer12">
	<path fill="#CA4152" d="M186.5,331.7c-2.7-0.5-6.3-1.5-8-2.2c-1.6-0.7-5.9-1.8-9.4-2.5c-4.7-1-6.5-1.8-6.9-3.2
		c-0.3-1.1-1.4-1.8-3-1.8c-3.7,0-22.3-9.4-25.2-12.8c-0.8-0.9-2.7-2.3-4.2-3.1c-1.6-0.8-2.8-1.8-2.8-2.3c0-0.4-0.6-0.8-1.3-0.8
		c-1.2,0-6.7-5.3-6.7-6.5c0-0.9-5.1-5.5-6.1-5.5c-0.5,0-0.9-0.4-0.9-1c0-0.5-1.3-2.3-3-3.8c-1.6-1.6-3-3.9-3-5.1s-0.6-2.4-1.4-2.7
		c-2.3-0.9-9.8-12.3-9.2-14c0.3-0.8-0.1-1.7-0.9-2c-0.8-0.4-1.5-1.1-1.5-1.6c0-0.6-0.6-1.6-1.4-2.2c-0.7-0.6-2.6-4.7-4.1-9.1
		c-1.5-4.4-3.2-8.6-3.8-9.3c-0.5-0.7-0.7-1.5-0.3-1.9c0.3-0.3-0.1-1.4-1-2.4s-1.8-3.7-2.1-6.1c-0.3-2.4-1.2-6.2-2-8.5
		c-0.8-2.2-1.2-5-0.9-6.1c0.4-1.1,0.2-2.3-0.4-2.7c-1.7-1.1-1.2-12.6,0.7-14.7c1.5-1.7,1.5-1.8-0.6-1.8c-1.4,0-2.1-0.5-1.9-1.2
		c0.6-1.7,80.5-2.5,82.2-0.8c0.5,0.5,1.8,1,2.7,1c2.4,0,3.1,1.4,3.4,6.9c0.2,2.5,1.1,6.4,2.1,8.6s1.9,4.5,2,5
		c0.2,2.2,1.9,5.1,3.9,6.8c1.4,1.3,1.6,2,0.7,2.3c-2.2,1-0.2,2.4,2.4,1.8c2-0.5,2.6-0.2,3.1,1.4c0.3,1.2,1.4,2.4,2.4,2.7
		c1,0.4,1.9,1.5,1.9,2.5c0,1.2,0.5,1.7,1.3,1.4c0.7-0.2,2.7,0.2,4.3,1.1c1.6,0.8,3.9,1.5,5.1,1.5c1.2,0,2.5,0.5,2.8,1
		c0.3,0.6,2.3,1,4.4,1c3.5,0,3.9,0.3,4.5,3.3c1.1,5.2,0.7,67-0.4,68.1c-0.6,0.6-0.4,1.6,0.7,2.8c1.5,1.7,1.6,2.8,0.5,9.9
		c-0.6,4.4-1.4,8.4-1.7,8.9C202.7,333.2,193.2,333.1,186.5,331.7z"/>
	<path fill="#CA4152" d="M249.5,285.8c-0.3-0.7-0.4-21.7-0.3-46.7l0.3-45.4l5-1.3c2.8-0.7,5.1-0.9,5.3-0.4c0.5,1.4,4.6-0.3,6.6-2.7
		c1-1.3,2.3-2.2,2.9-2c0.7,0.2,2.5-1.1,4.1-3c1.8-1.9,3.9-3.3,5.3-3.3c1.8,0,2.3-0.5,2.3-2.6c0-1.5,0.5-2.4,1.2-2.2
		c1.2,0.4,7.5-11,7-12.6c-0.5-1.6,2-5.6,3.4-5.6c1,0,1.1-0.6,0.4-2.6c-1.3-3.4-1.3-7.1,0.2-8c1.2-0.8,80-1.4,83.6-0.7
		c2.1,0.5,2.2,1,2.2,9.7c0,5.1-0.3,9.6-0.7,9.9c-0.3,0.4-0.8,1.9-0.9,3.4c-0.8,7.2-1.7,10.3-3.1,10.3c-1,0-1.2,0.6-0.8,2
		c0.9,2.9-1.7,11.8-6.9,23.3c-1.4,3.2-2.6,6.4-2.6,7.2s-0.6,1.8-1.2,2.2c-0.7,0.4-2.1,2.5-3,4.6c-1,2-2.2,3.7-2.7,3.7
		s-1.2,1.3-1.6,2.9c-0.3,1.6-1.7,3.7-3.1,4.5c-1.3,0.9-2.4,2.1-2.4,2.6c0,0.6-0.8,1.8-1.7,2.9c-3.7,3.8-11.8,13.4-12.6,14.7
		c-0.4,0.8-1.5,1.4-2.2,1.4c-0.8,0-1.5,0.6-1.5,1.3c0,0.8-1.7,1.8-3.7,2.3c-2.2,0.5-4.2,1.8-4.8,3c-1.8,3.6-3.6,5.4-5.6,5.4
		c-1.1,0-1.9,0.6-1.9,1.3c0,1.6-3.8,4-5,3.2c-0.6-0.4-1-0.2-1,0.4c0,1.5-12.5,8.1-15.4,8.1c-1.5,0-3.4,0.4-4.4,0.9
		c-5.2,2.8-11.1,5.1-13.2,5.1c-1.3,0-3.9,0.5-5.7,1.2c-2.6,0.9-3.8,1-5.2,0.1c-1.4-0.9-2.3-0.8-4,0.4c-1.2,0.8-2.8,1.2-3.6,0.9
		c-0.8-0.3-1.7-0.1-2,0.4C255.6,287.4,250,287.2,249.5,285.8z"/>
	<path fill="#CA4152" d="M206.2,136.1c-0.8-2.6-1.2-16-1.2-42.3c0-43-0.3-41.1,7.3-48.9c2.4-2.4,4.6-5.2,5-6.1
		c0.3-1,1.5-1.8,2.6-1.8c1.1,0,2.8-1.4,4.1-3.5c1.2-2,3.5-4.2,5.1-5c1.9-1,2.6-2,2.2-3.1c-0.3-1,0.1-1.7,1.3-2c1.1-0.3,3.9-3,6.4-6
		c4.3-5.3,6.3-6.4,7.5-4.4c0.3,0.5,0.6,20.4,0.5,44.1c0,42.1-0.1,43.1-2.1,45.2c-1.2,1.2-2.5,3.3-3,4.5c-0.5,1.3-1.7,2.6-2.7,2.9
		c-0.9,0.2-3,2.2-4.5,4.4c-1.6,2.1-3.5,3.9-4.3,3.9c-0.8,0-1.4,0.7-1.4,1.5c0,0.8-0.4,1.5-0.9,1.5s-1.1,0.9-1.4,2
		c-0.3,1.1-1.3,2.3-2.4,2.7c-2.1,0.8-4,2.9-5.3,6.1c-0.5,1.2-1.8,2.5-2.7,2.9c-1,0.4-2.7,1.7-3.8,3
		C209.5,141.1,207.5,140.6,206.2,136.1z"/>
</g>
<g id="layer13">
	<path fill="#554DAE" d="M206.6,327.1c-1.6-1.8-1.7-5.3-1.4-44.3c0.3-41.5,0.3-42.4,2.5-45.8c3-4.9,6.9-8.4,8.6-7.7
		c1,0.4,1.3,0,1.1-1.1c-0.5-2,7.1-11.2,9.2-11.2c0.8,0,1.4-0.6,1.4-1.4c0-0.7,0.9-1.6,1.9-1.9c1.1-0.2,2.1-1.5,2.3-2.8
		c0.1-1.3,1.3-2.8,2.6-3.4c1.2-0.5,2.2-1.5,2.2-2c0-2.2,10.3-10.5,13-10.5c1.5,0,1.2,4-0.4,4.6c-1.7,0.6-1.3,6.6,0.5,10.2
		c1,1.8,1,2.8,0.1,4.2c-0.8,1.3-1.2,11.4-1.2,34.6c-0.1,17.9,0.1,32.9,0.4,33.2c1.9,1.9,0.2,5.5-4.9,9.9c-3,2.6-5.5,5.3-5.5,6
		c0,0.6-0.8,1.8-1.8,2.5c-1,0.7-3.5,3.4-5.7,6.1c-2.2,2.6-4.5,4.7-5.2,4.7c-0.8,0-1.7,1-2.2,2.3c-1,2.5-5.8,7.1-8.4,8
		c-1,0.4-1.5,1.2-1.2,1.8c0.8,1.2-3.2,5.9-5,5.9C208.8,329,207.5,328.1,206.6,327.1z"/>
	<path fill="#554DAE" d="M75.5,191.8c-0.3-1.2,0-9.3,0.4-9.3c0.1,0,0.3-3.6,0.5-8c0.3-7.9,4.8-28.1,6.7-29.9c0.5-0.6,0.9-2,0.9-3.1
		c0-1.2,2.9-8,6.5-15.1C104.8,98,126.8,75.7,153,63.3c10.2-4.8,14.9-6.6,18.7-6.7c1.7-0.1,3.7-0.7,4.5-1.4
		c1.4-1.1,13.8-3.2,22.3-3.6c9.1-0.5,8.7-3.1,8.2,45c-0.3,23.1-0.6,42.6-0.7,43.4c-0.8,6.4-1.1,7-4.3,7c-4.9,0.1-11.8,2.3-16.2,5.2
		c-5.2,3.4-13.7,11.6-15.2,14.8c-0.7,1.4-1.7,3.2-2.1,4c-2.5,4.3-3.2,6.2-3.2,8.4c0,1.4-0.4,2.7-0.9,3c-0.4,0.3-0.6,1.7-0.3,3.1
		c0.6,3.4-1.4,5.5-5.4,5.5c-1.9,0-3.4,0.5-3.4,1C155,193.6,76,193.4,75.5,191.8z"/>
	<path fill="#554DAE" d="M297.5,146.1c-0.6-0.5-2.1-1.1-3.5-1.3c-2.1-0.2-2.5-0.9-2.8-3.8c-0.9-12.8-8-26.6-16.4-32.1
		c-2.3-1.5-4.5-3.4-5-4.2c-0.4-0.8-2.8-1.8-5.3-2.1c-2.4-0.4-5.2-1.4-6-2.3c-0.9-0.9-2.5-1.3-3.7-1c-1.2,0.3-3,0.2-4-0.4
		c-1.7-0.9-1.8-3.3-1.8-46.8c0-39.6,0.2-46,1.5-47.1c1.8-1.5,13.3-0.7,21.1,1.5c2.8,0.8,6.8,1.7,8.9,2c2.1,0.2,5.6,1.4,7.9,2.5
		c2.3,1.1,5,2,5.9,2c1,0,2,0.7,2.3,1.5C297,15.3,298,16,299,16c5.6,0,31,16.1,31,19.7c0,0.7,0.6,1.6,1.4,1.9
		C333.3,38.3,346,50.1,346,51c0,0.5,1.4,2.3,3.1,4.1c4.1,4.4,8.1,10.7,7.4,11.8c-0.2,0.5,0.2,1.2,1.1,1.5c0.8,0.3,2.4,2.5,3.5,4.8
		c1.1,2.4,3.1,6.1,4.5,8.3c1.3,2.2,2.4,4.9,2.4,6c0,1.2,0.4,2.5,1,3.1c1.5,1.5,7,18.5,6.4,19.6c-0.3,0.5,0,1.5,0.6,2.3
		c0.6,0.8,0.9,1.9,0.6,2.4c-0.4,0.5-0.2,1.2,0.3,1.6c0.5,0.3,1,1.3,1,2.3c0,0.9,0.5,5.9,1,11c0.6,5.1,0.7,11,0.3,13l-0.8,3.7
		l-40,0.3C314.8,146.9,298,146.6,297.5,146.1z"/>
</g>
<rect x="249.7" y="195.2" fill="#CA4152" width="25.708" height="25.708"/>
<rect x="246.3" y="8.8" fill="#CA4152" width="1.9" height="89.7"/>
<rect x="248.5" y="8" fill="#554DAE" width="15.004" height="15.004"/>
</svg>
